<svg xmlns="http://www.w3.org/2000/svg" width="1600" height="900" viewBox="0 0 1600 900" role="img" aria-labelledby="title desc"><title id="title">生命維持機器の依存関係とバックアップ</title><desc id="desc">患者から気道・回路・機器・電源・ガス・薬液へ依存関係をたどり、停止時に患者を別の方法で支えながら代替機器と専門支援へ切り替える。</desc><defs><marker id="a" markerWidth="10" markerHeight="10" refX="9" refY="5" orient="auto"><path d="M0 0 L10 5 L0 10Z" fill="#31546D"/></marker></defs><rect width="1600" height="900" fill="#fff"/>
<text x="70" y="72" font-family="Hiragino Sans, Yu Gothic, Arial, sans-serif" font-size="42" font-weight="700" fill="#172B3A">生命維持機器：止まったときの患者への影響と代替手段を先に決める</text><text x="70" y="116" font-family="Hiragino Sans, Yu Gothic, Arial, sans-serif" font-size="23" fill="#526B7A">警報を消す前に患者を支え、患者側から接続・機器・供給源へ原因をたどる</text>
<g font-family="Hiragino Sans, Yu Gothic, Arial, sans-serif" text-anchor="middle"><circle cx="170" cy="390" r="95" fill="#E7F6EE" stroke="#26734D" stroke-width="6"/><text x="170" y="380" font-size="28" font-weight="700">患者</text><text x="170" y="420" font-size="19">呼吸・循環・意識</text><rect x="330" y="300" width="230" height="180" rx="28" fill="#EAF2F7"/><text x="445" y="350" font-size="26" font-weight="700">患者接続部</text><text x="445" y="395" font-size="19">気道・カテーテル</text><text x="445" y="430" font-size="19">カニューレ・ドレーン</text><rect x="630" y="300" width="230" height="180" rx="28" fill="#EEEAFE"/><text x="745" y="350" font-size="26" font-weight="700">回路・ライン</text><text x="745" y="395" font-size="19">屈曲・外れ・閉塞</text><text x="745" y="430" font-size="19">クランプ・液・フィルタ</text><rect x="930" y="300" width="230" height="180" rx="28" fill="#FFF2D9"/><text x="1045" y="350" font-size="26" font-weight="700">機器・設定</text><text x="1045" y="395" font-size="19">モード・速度・警報</text><text x="1045" y="430" font-size="19">センサー・ソフトウェア</text><rect x="1230" y="300" width="300" height="180" rx="28" fill="#FDE9E8"/><text x="1380" y="350" font-size="26" font-weight="700">供給源</text><text x="1380" y="395" font-size="19">電源・電池・酸素・空気</text><text x="1380" y="430" font-size="19">薬液・消耗品・ネットワーク</text></g>
<g stroke="#31546D" stroke-width="7" marker-end="url(#a)"><path d="M270 390 H320"/><path d="M570 390 H620"/><path d="M870 390 H920"/><path d="M1170 390 H1220"/></g>
<rect x="100" y="555" width="650" height="180" rx="30" fill="#FFF1EF"/><text x="425" y="605" text-anchor="middle" font-family="Hiragino Sans, Yu Gothic, Arial, sans-serif" font-size="28" font-weight="700" fill="#B21F2D">停止・故障時</text><text x="145" y="655" font-family="Hiragino Sans, Yu Gothic, Arial, sans-serif" font-size="21">1 患者を別の方法で支える　2 応援と専門担当へ連絡</text><text x="145" y="695" font-family="Hiragino Sans, Yu Gothic, Arial, sans-serif" font-size="21">3 設定・ログ・部品を保全し、故障機を再使用させない</text><rect x="850" y="555" width="650" height="180" rx="30" fill="#E7F6EE"/><text x="1175" y="605" text-anchor="middle" font-family="Hiragino Sans, Yu Gothic, Arial, sans-serif" font-size="28" font-weight="700" fill="#26734D">使用前から準備</text><text x="895" y="655" font-family="Hiragino Sans, Yu Gothic, Arial, sans-serif" font-size="21">停止後何分で危険か・手動代替・予備機・必要人員</text><text x="895" y="695" font-family="Hiragino Sans, Yu Gothic, Arial, sans-serif" font-size="21">搬送中の電池・ガス・薬液・固定・戻る方法を確認</text>
<text x="800" y="805" text-anchor="middle" font-family="Hiragino Sans, Yu Gothic, Arial, sans-serif" font-size="22" font-weight="700" fill="#172B3A">複数変更を同時に行うと原因が追えない。変更時刻と患者反応を一つずつ記録</text><text x="800" y="880" text-anchor="middle" font-family="Hiragino Sans, Yu Gothic, Arial, sans-serif" font-size="17" fill="#526B7A">FIG-DEVICE-001 · 個別機器の緊急操作は取扱説明書・施設手順を優先 · 確認日 2026-08-12</text></svg>
