<svg xmlns="http://www.w3.org/2000/svg" viewBox="0 0 1600 900" role="img" aria-labelledby="title desc"><title id="title">小児・妊産婦の初期対応</title><desc id="desc">共通のABCDE評価を、年齢、体重、妊娠週数、産後日数に合わせて調整する安全確認図。</desc><rect width="1600" height="900" fill="#f7fafc"/><text x="80" y="82" font-family="Hiragino Sans, Yu Gothic, Arial, sans-serif" font-size="42" font-weight="700" fill="#16324f">小児・妊産婦：ABCDEは共通、基準と介入は個別化</text><text x="80" y="122" font-family="Hiragino Sans, Yu Gothic, Arial, sans-serif" font-size="23" fill="#47647d">成人の数値・薬量・機器サイズを、そのまま流用しない</text>
<rect x="90" y="180" width="420" height="560" rx="28" fill="#e8f3ff" stroke="#2878b5" stroke-width="4"/><circle cx="300" cy="275" r="58" fill="#fff" stroke="#2878b5" stroke-width="5"/><circle cx="280" cy="264" r="6" fill="#16324f"/><circle cx="320" cy="264" r="6" fill="#16324f"/><path d="M280 300 Q300 314 320 300" fill="none" stroke="#16324f" stroke-width="5"/><text x="300" y="375" text-anchor="middle" font-family="Hiragino Sans, Yu Gothic, Arial, sans-serif" font-size="31" font-weight="700" fill="#16324f">小児</text><text x="135" y="432" font-family="Hiragino Sans, Yu Gothic, Arial, sans-serif" font-size="23" fill="#16324f">• 年齢別の正常範囲</text><text x="135" y="480" font-family="Hiragino Sans, Yu Gothic, Arial, sans-serif" font-size="23" fill="#16324f">• 実測体重と測定時刻</text><text x="135" y="528" font-family="Hiragino Sans, Yu Gothic, Arial, sans-serif" font-size="23" fill="#16324f">• 薬量・濃度・最大量</text><text x="135" y="576" font-family="Hiragino Sans, Yu Gothic, Arial, sans-serif" font-size="23" fill="#16324f">• 気道・機器サイズ</text><rect x="130" y="630" width="340" height="72" rx="16" fill="#fff"/><text x="300" y="660" text-anchor="middle" font-family="Hiragino Sans, Yu Gothic, Arial, sans-serif" font-size="20" font-weight="700" fill="#b23b3b">低血圧は遅い所見になりうる</text><text x="300" y="688" text-anchor="middle" font-family="Hiragino Sans, Yu Gothic, Arial, sans-serif" font-size="18" fill="#47647d">呼吸・外観・末梢循環も統合</text>
<rect x="590" y="180" width="420" height="560" rx="28" fill="#fff2f5" stroke="#c0567a" stroke-width="4"/><circle cx="800" cy="275" r="68" fill="#fff" stroke="#c0567a" stroke-width="5"/><path d="M775 250 Q835 260 820 320 Q785 330 770 300Z" fill="#f7c7d6"/><text x="800" y="375" text-anchor="middle" font-family="Hiragino Sans, Yu Gothic, Arial, sans-serif" font-size="31" font-weight="700" fill="#16324f">妊娠・産褥</text><text x="635" y="432" font-family="Hiragino Sans, Yu Gothic, Arial, sans-serif" font-size="23" fill="#16324f">• 妊娠週数・産後日数</text><text x="635" y="480" font-family="Hiragino Sans, Yu Gothic, Arial, sans-serif" font-size="23" fill="#16324f">• 出血・血圧・神経症状</text><text x="635" y="528" font-family="Hiragino Sans, Yu Gothic, Arial, sans-serif" font-size="23" fill="#16324f">• 大静脈圧迫への対応</text><text x="635" y="576" font-family="Hiragino Sans, Yu Gothic, Arial, sans-serif" font-size="23" fill="#16324f">• 産科・麻酔・新生児連携</text><rect x="630" y="630" width="340" height="72" rx="16" fill="#fff"/><text x="800" y="660" text-anchor="middle" font-family="Hiragino Sans, Yu Gothic, Arial, sans-serif" font-size="20" font-weight="700" fill="#b23b3b">母体の蘇生を最優先</text><text x="800" y="688" text-anchor="middle" font-family="Hiragino Sans, Yu Gothic, Arial, sans-serif" font-size="18" fill="#47647d">胎児評価で治療を遅らせない</text>
<rect x="1090" y="180" width="420" height="560" rx="28" fill="#edf8ef" stroke="#388e5a" stroke-width="4"/><text x="1300" y="245" text-anchor="middle" font-family="Hiragino Sans, Yu Gothic, Arial, sans-serif" font-size="31" font-weight="700" fill="#16324f">共通の安全確認</text><g font-family="Hiragino Sans, Yu Gothic, Arial, sans-serif" font-size="23" fill="#16324f"><text x="1140" y="315">1  ABCDEで直ちに安定化</text><text x="1140" y="375">2  基準値と背景を明示</text><text x="1140" y="435">3  計算・機器を独立照合</text><text x="1140" y="495">4  専門チームを早期招集</text><text x="1140" y="555">5  反応と害を再評価</text></g><path d="M1170 625 H1430" stroke="#388e5a" stroke-width="6"/><path d="M1410 610 L1435 625 L1410 640" fill="none" stroke="#388e5a" stroke-width="6"/><text x="1300" y="684" text-anchor="middle" font-family="Hiragino Sans, Yu Gothic, Arial, sans-serif" font-size="21" font-weight="700" fill="#388e5a">患者固有の指示・地域手順へ接続</text><text x="80" y="840" font-family="Hiragino Sans, Yu Gothic, Arial, sans-serif" font-size="17" fill="#5d7185">教育用概念図：具体的な薬量・蘇生手順・機器サイズは、最新の専門手順と患者固有の指示で確認する。</text></svg>
