<svg xmlns="http://www.w3.org/2000/svg" width="1600" height="900" viewBox="0 0 1600 900" role="img" aria-labelledby="title desc">
  <title id="title">高警戒薬の持続注入を安全に管理する流れ</title><desc id="desc">薬剤名、濃度、投与速度、専用ルート、ポンプ、接続、患者反応を処方変更とバッグ交換の前後で確認し、残液やデッドスペースによる遅延・急速投与を防ぐ。</desc>
  <defs><marker id="a" markerWidth="9" markerHeight="9" refX="8" refY="4.5" orient="auto"><path d="M0 0 L9 4.5 L0 9Z" fill="#31546D"/></marker></defs><rect width="1600" height="900" fill="#fff"/>
  <text x="70" y="72" font-family="Hiragino Sans, Yu Gothic, Arial, sans-serif" font-size="42" font-weight="700" fill="#172B3A">高警戒薬の持続注入：処方・薬液・ポンプ・ルート・患者を一本につなぐ</text><text x="70" y="116" font-family="Hiragino Sans, Yu Gothic, Arial, sans-serif" font-size="23" fill="#526B7A">濃度変更やバッグ交換では、ライン内の旧薬液と到達時間まで計画する</text>
  <g font-family="Hiragino Sans, Yu Gothic, Arial, sans-serif" text-anchor="middle"><rect x="65" y="210" width="270" height="210" rx="28" fill="#FFF2D9"/><text x="200" y="265" font-size="27" font-weight="700">1 処方</text><text x="200" y="315" font-size="20">薬剤・濃度・単位</text><text x="200" y="350" font-size="20">投与速度・目標・上限</text><rect x="375" y="210" width="270" height="210" rx="28" fill="#EAF2F7"/><text x="510" y="265" font-size="27" font-weight="700">2 薬液</text><text x="510" y="315" font-size="20">患者・ラベル・調製時刻</text><text x="510" y="350" font-size="20">配合変化・遮光・安定性</text><rect x="685" y="210" width="270" height="210" rx="28" fill="#EEEAFE"/><text x="820" y="265" font-size="27" font-weight="700">3 ポンプ</text><text x="820" y="315" font-size="20">薬剤ライブラリ・単位</text><text x="820" y="350" font-size="20">速度・残量・電源・履歴</text><rect x="995" y="210" width="270" height="210" rx="28" fill="#FDE9E8"/><text x="1130" y="265" font-size="27" font-weight="700">4 ルート</text><text x="1130" y="315" font-size="20">専用性・接続・クランプ</text><text x="1130" y="350" font-size="20">死腔・逆流・同時投与</text><rect x="1305" y="210" width="230" height="210" rx="28" fill="#E7F6EE"/><text x="1420" y="265" font-size="27" font-weight="700">5 患者</text><text x="1420" y="315" font-size="20">期待反応</text><text x="1420" y="350" font-size="20">有害反応・再評価</text></g>
  <g stroke="#31546D" stroke-width="7" marker-end="url(#a)"><path d="M340 315 H365"/><path d="M650 315 H675"/><path d="M960 315 H985"/><path d="M1270 315 H1295"/></g>
  <rect x="110" y="500" width="650" height="180" rx="28" fill="#FFF1EF"/><text x="435" y="550" text-anchor="middle" font-family="Hiragino Sans, Yu Gothic, Arial, sans-serif" font-size="27" font-weight="700" fill="#B21F2D">変更時に起こり得る危険</text><text x="155" y="600" font-family="Hiragino Sans, Yu Gothic, Arial, sans-serif" font-size="21">濃度変更後も旧薬液がライン内に残り、効果発現が遅れる</text><text x="155" y="640" font-family="Hiragino Sans, Yu Gothic, Arial, sans-serif" font-size="21">不用意なフラッシュで高濃度薬が急速投与される</text>
  <rect x="840" y="500" width="650" height="180" rx="28" fill="#E7F6EE"/><text x="1165" y="550" text-anchor="middle" font-family="Hiragino Sans, Yu Gothic, Arial, sans-serif" font-size="27" font-weight="700" fill="#26734D">安全な切替計画</text><text x="885" y="600" font-family="Hiragino Sans, Yu Gothic, Arial, sans-serif" font-size="21">旧濃度・新濃度・ライン容量・接続部位・到達時間を共有</text><text x="885" y="640" font-family="Hiragino Sans, Yu Gothic, Arial, sans-serif" font-size="21">切替前後を同じ患者指標で観察し、時刻を記録</text>
  <rect x="180" y="760" width="1240" height="70" rx="22" fill="#EAF2F7"/><text x="800" y="803" text-anchor="middle" font-family="Hiragino Sans, Yu Gothic, Arial, sans-serif" font-size="23" font-weight="700" fill="#172B3A">独立確認は責任の代替ではなく、重大な取り違えを別の視点で捕捉する仕組み</text><text x="800" y="880" text-anchor="middle" font-family="Hiragino Sans, Yu Gothic, Arial, sans-serif" font-size="17" fill="#526B7A">FIG-PHARM-001 · 高警戒薬・持続注入SSOTと施設手順を参照 · 確認日 2026-08-12</text>
</svg>
